<?xml version="1.0" encoding="iso-8859-1"?>
<!-- Generator: Adobe Illustrator 19.0.0, SVG Export Plug-In . SVG Version: 6.00 Build 0)  -->
<!-- License: CC0. Made by SVG Repo: https://www.svgrepo.com/svg/217769/p -->
<svg version="1.1" id="Layer_1" xmlns="http://www.w3.org/2000/svg" xmlns:xlink="http://www.w3.org/1999/xlink" x="0px" y="0px"
	 viewBox="0 0 496 496" style="enable-background:new 0 0 496 496;" xml:space="preserve">
<path style="fill:#CC4521;" d="M281.08,176H208v72h73.08c20.528,0,37.184-15.456,37.184-35.992
	C318.264,191.456,301.608,176,281.08,176z"/>
<path style="fill:#D8532B;" d="M248,0C111.04,0,0,111.032,0,248s111.04,248,248,248c136.952,0,248-111.032,248-248S384.952,0,248,0z
	 M281.08,296H208v80h-48V128h121.08c47.928,0,86.8,36.064,86.8,84.008C367.872,259.936,329.008,296,281.08,296z"/>
<path style="fill:#CC4521;" d="M338.336,17.048c30.888,40.896,48.936,90.24,48.936,143.376
	c0,141.24-127.504,255.752-284.816,255.752c-13.2,0-26.184-0.872-38.92-2.44C108.944,464.232,174.752,496,248,496
	c136.952,0,248-111.032,248-248C496,142.92,430.616,53.168,338.336,17.048z"/>
<g>
	<path style="fill:#FC732D;" d="M316.832,220.008c0.832-3.128,1.432-4.88,1.432-8.248c0-20.552-16.656-35.768-37.184-35.768H208v16
		h73.08C298.232,192,312.552,204.192,316.832,220.008z"/>
	<path style="fill:#FC732D;" d="M281.08,296H208v24h73.08c47.928,0,86.8-40.376,86.8-88.304c0-3.288-0.224-8.072-0.568-11.248
		C362.48,263.816,325.736,296,281.08,296z"/>
	<path style="fill:#FC732D;" d="M248,19.376c133.712,0,242.664,105.832,247.76,238.312c0.104-3.224,0.24-6.432,0.24-9.688
		C496,111.032,384.952,0,248,0C111.04,0,0,111.032,0,248c0,3.256,0.128,6.464,0.24,9.688C5.336,125.208,114.28,19.376,248,19.376z"
		/>
	<rect x="160" y="376" style="fill:#FC732D;" width="48" height="16"/>
</g>
</svg>
